# xmcd
#
# Track frame offsets:
#   150
#   15472
#   31088
#   44008
#   59778
#   76719
#   102747
#   119801
#   137616
#   151477
#   170393
#   187363
#   201676
#
# Disc length: 3342 seconds
#
# Revision: 0
# Processed by: cddbd v1.5.1PL0 Copyright (c) Steve Scherf et al.
# Submitted via: Media_Universe 3.0
#
DISCID=c30d0c0d
DTITLE=The Bunch - Better Out Than In
DYEAR=1900
DGENRE=Country
TTITLE0=Joe and Rosalita
TTITLE1=What About Now
TTITLE2=Homespun Love
TTITLE3=Maybe I Should Stay Here
TTITLE4=Sin Wagon
TTITLE5=Hotel California
TTITLE6=Mexico
TTITLE7=Layla
TTITLE8=Hillbilly Shoes
TTITLE9=Fall From Grace
TTITLE10=Country Boy
TTITLE11=Country Boy
TTITLE12=Only Love
EXTD=
EXTT0=
EXTT1=
EXTT2=
EXTT3=
EXTT4=
EXTT5=
EXTT6=
EXTT7=
EXTT8=
EXTT9=
EXTT10=
EXTT11=
EXTT12=
PLAYORDER=
